<svg version="1.1" xmlns="http://www.w3.org/2000/svg" xmlns:xlink="http://www.w3.org/1999/xlink" viewBox="0 0 171 171"><g fill="none" fill-rule="nonzero" stroke="none" stroke-width="1" stroke-linecap="butt" stroke-linejoin="miter" stroke-miterlimit="10" stroke-dasharray="" stroke-dashoffset="0" font-family="none" font-weight="none" font-size="none" text-anchor="none" style="mix-blend-mode: normal"><path d="M0,171.98863v-171.98863h171.98863v171.98863z" fill="none"></path><g fill="#1d429a"><path d="M145.7205,55.7745c-0.7011,0.4389 -17.3907,9.7014 -17.3907,30.2385c0.7866,23.4213 21.0615,31.635 21.4092,31.635c-0.3477,0.4389 -3.0609,11.1891 -11.0979,22.458c-6.3783,9.7071 -13.4577,19.494 -24.2079,19.494c-10.2258,0 -13.8966,-6.4695 -25.6956,-6.4695c-12.6711,0 -16.2564,6.4695 -25.9578,6.4695c-10.7502,0 -18.354,-10.3113 -25.08,-19.9272c-8.7381,-12.5856 -16.1652,-32.3361 -16.4274,-51.3c-0.1767,-10.0491 1.7499,-19.9272 6.6405,-28.3176c6.9027,-11.7135 19.2261,-19.665 32.6838,-19.9272c10.3113,-0.3477 19.4883,7.0794 25.7811,7.0794c6.0306,0 17.3052,-7.0794 30.0618,-7.0794c5.5062,0.0057 20.1894,1.6644 29.2809,15.6465zM85.5057,38.1216c-1.8354,-9.177 3.2319,-18.354 7.9515,-24.2079c6.0306,-7.0794 15.5553,-11.8845 23.769,-11.8845c0.5244,9.177 -2.7987,18.1773 -8.7381,24.7323c-5.3295,7.0794 -14.5065,12.4089 -22.9824,11.3601z"></path></g></g></svg>